<?xml version="1.0" encoding="UTF-8" standalone="no"?>
<svg
   viewBox="-15.5 0 131 126"
   width="314"
   height="302"
   version="1.1"
   id="svg6"
   xmlns="http://www.w3.org/2000/svg"
   xmlns:svg="http://www.w3.org/2000/svg">
  <defs
     id="defs6" />
  <g
     transform="translate(0,4)"
     id="g5">
    <rect
       x="22"
       y="4"
       width="56"
       height="40"
       rx="7"
       fill="#C96A50"
       id="rect1" />
    <g
       transform="translate(30,4)"
       fill="none"
       stroke="#F4E7CE"
       stroke-width="3"
       stroke-linecap="round"
       stroke-linejoin="round"
       color="#F4E7CE"
       id="g1">
      <path
         d="M20 29 C12 22 9 17 12 13.5 C14.5 10.5 20 12.5 20 16 C20 12.5 25.5 10.5 28 13.5 C31 17 28 22 20 29 Z"
         id="path1" />
    </g>
    <rect
       x="6"
       y="50"
       width="88"
       height="18"
       rx="5"
       fill="#3A7D44"
       id="rect2" />
    <path
       d="m 27.400053,63 v -6.98 h 2.65 q 1.02,0 1.56,0.58 0.54,0.58 0.54,1.58 0,1 -0.54,1.58 -0.54,0.58 -1.56,0.58 h -1.34 V 63 Z m 1.31,-3.73 h 1.07 q 0.53,0 0.76,-0.21 0.23,-0.22 0.23,-0.69 v -0.38 q 0,-0.47 -0.23,-0.68 -0.23,-0.22 -0.76,-0.22 h -1.07 z m 9.179985,3.73 -0.49,-1.77 h -2.07 l -0.48,1.77 h -1.32 l 1.96,-6.98 h 1.82 l 1.97,6.98 z m -1.48,-5.69 h -0.08 l -0.77,2.85 h 1.62 z M 42.550023,63 v -2.55 l -2.27,-4.43 h 1.46 l 0.81,1.68 0.63,1.43 h 0.07 l 0.64,-1.43 0.82,-1.68 h 1.41 l -2.27,4.43 V 63 Z m 8.829984,-3.23 0.06,-2.02 h -0.09 l -1.35,3.59 -1.35,-3.59 h -0.09 l 0.06,2.02 V 63 h -1.14 v -6.98 h 1.56 l 0.97,2.57 h 0.07 l 0.98,-2.57 h 1.46 V 63 h -1.14 z M 54.629993,63 v -6.98 h 4.41 v 1.08 h -3.1 v 1.82 h 2.99 V 60 h -2.99 v 1.92 h 3.1 V 63 Z m 7.859984,-5.01 h -0.1 V 63 h -1.12 v -6.98 h 1.61 l 1.83,5.01 h 0.1 v -5.01 h 1.12 V 63 h -1.61 z M 71.049961,57.1 V 63 h -1.3 v -5.9 h -2.1 v -1.08 h 5.5 v 1.08 z"
       id="text2"
       style="font-weight:600;font-size:10px;font-family:'IBM Plex Mono SemiBold', monospace;letter-spacing:0.8;text-anchor:middle;fill:#f4e7ce"
       aria-label="PAYMENT" />
    <rect
       x="6"
       y="74"
       width="40"
       height="26"
       rx="6"
       fill="#26333F"
       id="rect3" />
    <rect
       x="54"
       y="74"
       width="40"
       height="26"
       rx="6"
       fill="#26333F"
       id="rect4" />
    <path
       d="m 21.116018,83.624 v 5.22 q 0,0.468 0.024,0.84 0.036,0.372 0.156,0.636 0.132,0.252 0.384,0.396 0.264,0.144 0.72,0.144 0.456,0 0.708,-0.144 0.264,-0.144 0.384,-0.396 0.132,-0.264 0.156,-0.636 0.036,-0.372 0.036,-0.84 v -5.22 h 1.572 v 4.98 q 0,0.888 -0.108,1.548 -0.108,0.66 -0.42,1.104 -0.312,0.444 -0.876,0.672 -0.552,0.216 -1.452,0.216 -0.9,0 -1.464,-0.216 -0.552,-0.228 -0.864,-0.672 -0.312,-0.444 -0.42,-1.104 -0.108,-0.66 -0.108,-1.548 v -4.98 z M 26.936,92 V 90.824 H 28.82 V 84.8 h -1.884 v -1.176 h 5.328 V 84.8 H 30.38 v 6.024 h 1.884 V 92 Z"
       id="text4"
       style="font-weight:600;font-size:12px;font-family:'IBM Plex Mono SemiBold', monospace;text-anchor:middle;fill:#f4e7ce"
       aria-label="UI" />
    <path
       d="m 67.016027,92.144 q -1.644,0 -2.436,-1.128 -0.78,-1.128 -0.78,-3.204 0,-2.064 0.78,-3.192 0.792,-1.14 2.436,-1.14 0.624,0 1.092,0.168 0.48,0.168 0.828,0.468 0.348,0.288 0.576,0.708 0.228,0.408 0.36,0.9 l -1.44,0.408 q -0.084,-0.288 -0.192,-0.54 -0.108,-0.252 -0.276,-0.432 -0.156,-0.192 -0.396,-0.288 -0.24,-0.108 -0.576,-0.108 -0.816,0 -1.176,0.624 -0.348,0.624 -0.348,1.704 v 1.44 q 0,1.08 0.348,1.704 0.36,0.624 1.176,0.624 0.336,0 0.576,-0.096 0.24,-0.108 0.396,-0.288 0.168,-0.192 0.276,-0.444 0.108,-0.252 0.192,-0.54 l 1.44,0.408 q -0.132,0.492 -0.36,0.912 -0.228,0.408 -0.576,0.708 -0.348,0.288 -0.828,0.456 -0.468,0.168 -1.092,0.168 z M 71.396009,92 v -8.376 h 5.472 v 1.296 h -3.9 v 2.184 h 3.516 V 88.4 h -3.516 V 92 Z m 11.255982,-1.164 h -0.096 q -0.108,0.252 -0.264,0.492 -0.156,0.24 -0.384,0.42 -0.228,0.18 -0.54,0.288 -0.3,0.108 -0.696,0.108 -1.272,0 -1.932,-1.116 -0.648,-1.128 -0.648,-3.156 0,-2.136 0.768,-3.264 0.768,-1.128 2.364,-1.128 0.624,0 1.092,0.168 0.48,0.168 0.816,0.468 0.348,0.3 0.564,0.72 0.228,0.408 0.36,0.888 l -1.44,0.408 q -0.084,-0.264 -0.192,-0.516 -0.096,-0.252 -0.264,-0.432 -0.156,-0.192 -0.384,-0.3 -0.228,-0.12 -0.564,-0.12 -0.78,0 -1.116,0.624 -0.336,0.624 -0.336,1.704 v 1.344 q 0,0.54 0.072,0.996 0.084,0.444 0.264,0.768 0.18,0.324 0.468,0.504 0.288,0.168 0.72,0.168 0.672,0 1.02,-0.396 0.348,-0.408 0.348,-1.032 V 88.76 h -1.524 v -1.14 h 2.928 V 92 h -1.404 z"
       id="text5"
       style="font-weight:600;font-size:12px;font-family:'IBM Plex Mono SemiBold', monospace;text-anchor:middle;fill:#f4e7ce"
       aria-label="CFG" />
  </g>
  <g
     id="text6"
     style="font-size:11px;font-family:'Space Grotesk', sans-serif;letter-spacing:-0.2;text-anchor:middle"
     aria-label="CrowdfundingBundle">
    <path
       style="font-weight:700;fill:#c96a50"
       d="m -1.0283816,120.154 q -1.43,0 -2.266,-0.792 -0.836,-0.803 -0.836,-2.288 v -1.848 q 0,-1.485 0.836,-2.277 0.836,-0.803 2.266,-0.803 1.41900004,0 2.189,0.781 0.781,0.77 0.781,2.123 v 0.066 H 0.51161844 v -0.11 q 0,-0.682 -0.385,-1.122 -0.374,-0.44 -1.15500004,-0.44 -0.77,0 -1.21,0.473 -0.44,0.473 -0.44,1.287 v 1.892 q 0,0.803 0.44,1.287 0.44,0.473 1.21,0.473 0.78100004,0 1.15500004,-0.44 0.385,-0.451 0.385,-1.122 v -0.198 H 1.9416184 v 0.154 q 0,1.353 -0.781,2.134 -0.76999996,0.77 -2.189,0.77 z M 2.9736087,120 v -5.456 h 1.364 v 0.616 h 0.198 q 0.121,-0.33 0.396,-0.484 0.286,-0.154 0.66,-0.154 h 0.66 v 1.232 h -0.682 q -0.528,0 -0.869,0.286 -0.341,0.275 -0.341,0.858 V 120 Z m 6.5539821,0.154 q -0.814,0 -1.463,-0.33 -0.649,-0.33 -1.023,-0.957 -0.374,-0.627 -0.374,-1.507 v -0.176 q 0,-0.88 0.374,-1.507 0.374,-0.627 1.023,-0.957 0.649,-0.33 1.463,-0.33 0.8140002,0 1.4630002,0.33 0.649,0.33 1.023,0.957 0.374,0.627 0.374,1.507 v 0.176 q 0,0.88 -0.374,1.507 -0.374,0.627 -1.023,0.957 -0.649,0.33 -1.4630002,0.33 z m 0,-1.232 q 0.6380002,0 1.0560002,-0.407 0.418,-0.418 0.418,-1.188 v -0.11 q 0,-0.77 -0.418,-1.177 -0.407,-0.418 -1.0560002,-0.418 -0.638,0 -1.056,0.418 -0.418,0.407 -0.418,1.177 v 0.11 q 0,0.77 0.418,1.188 0.418,0.407 1.056,0.407 z m 4.3539852,1.078 -0.77,-5.456 h 1.375 l 0.484,4.521 h 0.198 l 0.704,-4.521 h 2.222 l 0.704,4.521 h 0.198 l 0.484,-4.521 h 1.375 l -0.77,5.456 h -2.299 l -0.704,-4.521 h -0.198 l -0.704,4.521 z m 10.161975,0.154 q -0.649,0 -1.221,-0.319 -0.561,-0.33 -0.902,-0.957 -0.341,-0.627 -0.341,-1.518 v -0.176 q 0,-0.891 0.341,-1.518 0.341,-0.627 0.902,-0.946 0.561,-0.33 1.221,-0.33 0.495,0 0.825,0.121 0.341,0.11 0.55,0.286 0.209,0.176 0.319,0.374 h 0.198 V 112.3 h 1.386 v 7.7 h -1.364 v -0.66 h -0.198 q -0.187,0.308 -0.583,0.561 -0.385,0.253 -1.133,0.253 z m 0.418,-1.21 q 0.638,0 1.067,-0.407 0.429,-0.418 0.429,-1.21 v -0.11 q 0,-0.792 -0.429,-1.199 -0.418,-0.418 -1.067,-0.418 -0.638,0 -1.067,0.418 -0.429,0.407 -0.429,1.199 v 0.11 q 0,0.792 0.429,1.21 0.429,0.407 1.067,0.407 z M 29.563533,120 v -4.312 h -1.386 v -1.144 h 1.386 v -1.012 q 0,-0.561 0.33,-0.891 0.341,-0.341 0.88,-0.341 h 1.43 v 1.144 h -0.946 q -0.308,0 -0.308,0.33 v 0.77 h 1.43 v 1.144 h -1.43 V 120 Z m 5.772989,0.088 q -0.638,0 -1.122,-0.286 -0.473,-0.297 -0.737,-0.814 -0.264,-0.517 -0.264,-1.188 v -3.256 h 1.386 v 3.146 q 0,0.616 0.297,0.924 0.308,0.308 0.869,0.308 0.638,0 0.99,-0.418 0.352,-0.429 0.352,-1.188 v -2.772 h 1.386 V 120 h -1.364 v -0.715 h -0.198 q -0.132,0.275 -0.495,0.539 -0.363,0.264 -1.1,0.264 z M 39.833515,120 v -5.456 h 1.364 v 0.715 h 0.198 q 0.132,-0.286 0.495,-0.539 0.363,-0.264 1.1,-0.264 0.638,0 1.111,0.297 0.484,0.286 0.748,0.803 0.264,0.506 0.264,1.188 V 120 h -1.386 v -3.146 q 0,-0.616 -0.308,-0.924 -0.297,-0.308 -0.858,-0.308 -0.638,0 -0.99,0.429 -0.352,0.418 -0.352,1.177 V 120 Z m 8.775993,0.154 q -0.649,0 -1.221,-0.319 -0.561,-0.33 -0.902,-0.957 -0.341,-0.627 -0.341,-1.518 v -0.176 q 0,-0.891 0.341,-1.518 0.341,-0.627 0.902,-0.946 0.561,-0.33 1.221,-0.33 0.495,0 0.825,0.121 0.341,0.11 0.55,0.286 0.209,0.176 0.319,0.374 h 0.198 V 112.3 h 1.386 v 7.7 h -1.364 v -0.66 h -0.198 q -0.187,0.308 -0.583,0.561 -0.385,0.253 -1.133,0.253 z m 0.418,-1.21 q 0.638,0 1.067,-0.407 0.429,-0.418 0.429,-1.21 v -0.11 q 0,-0.792 -0.429,-1.199 -0.418,-0.418 -1.067,-0.418 -0.638,0 -1.067,0.418 -0.429,0.407 -0.429,1.199 v 0.11 q 0,0.792 0.429,1.21 0.429,0.407 1.067,0.407 z M 53.227489,120 v -5.456 h 1.386 V 120 Z m 0.693,-6.094 q -0.374,0 -0.638,-0.242 -0.253,-0.242 -0.253,-0.638 0,-0.396 0.253,-0.638 0.264,-0.242 0.638,-0.242 0.385,0 0.638,0.242 0.253,0.242 0.253,0.638 0,0.396 -0.253,0.638 -0.253,0.242 -0.638,0.242 z M 55.953476,120 v -5.456 h 1.364 v 0.715 h 0.198 q 0.132,-0.286 0.495,-0.539 0.363,-0.264 1.1,-0.264 0.638,0 1.111,0.297 0.484,0.286 0.748,0.803 0.264,0.506 0.264,1.188 V 120 h -1.386 v -3.146 q 0,-0.616 -0.308,-0.924 -0.297,-0.308 -0.858,-0.308 -0.638,0 -0.99,0.429 -0.352,0.418 -0.352,1.177 V 120 Z m 6.311992,-2.706 v -0.176 q 0,-0.858 0.341,-1.463 0.341,-0.616 0.902,-0.935 0.572,-0.33 1.243,-0.33 0.748,0 1.133,0.264 0.385,0.264 0.561,0.55 h 0.198 v -0.66 h 1.364 v 6.424 q 0,0.561 -0.33,0.891 -0.33,0.341 -0.88,0.341 h -3.652 v -1.21 h 3.168 q 0.308,0 0.308,-0.33 v -1.419 h -0.198 q -0.11,0.176 -0.308,0.363 -0.198,0.176 -0.528,0.297 -0.33,0.121 -0.836,0.121 -0.671,0 -1.243,-0.319 -0.561,-0.33 -0.902,-0.935 -0.341,-0.616 -0.341,-1.474 z m 2.882,1.518 q 0.638,0 1.067,-0.407 0.429,-0.407 0.429,-1.144 v -0.11 q 0,-0.748 -0.429,-1.144 -0.418,-0.407 -1.067,-0.407 -0.638,0 -1.067,0.407 -0.429,0.396 -0.429,1.144 v 0.11 q 0,0.737 0.429,1.144 0.429,0.407 1.067,0.407 z"
       id="path6" />
    <path
       style="font-weight:500;fill:#9a8f7c"
       d="m 69.094454,120 v -1.056 h 1.034 v -5.588 h -1.034 V 112.3 h 3.905 q 0.693,0 1.21,0.242 0.517,0.231 0.803,0.671 0.297,0.429 0.297,1.023 v 0.11 q 0,0.528 -0.198,0.869 -0.198,0.341 -0.484,0.528 -0.275,0.187 -0.528,0.264 v 0.176 q 0.253,0.066 0.539,0.264 0.297,0.187 0.495,0.528 0.209,0.341 0.209,0.891 v 0.11 q 0,0.638 -0.297,1.089 -0.297,0.451 -0.825,0.693 -0.517,0.242 -1.199,0.242 z m 2.233,-1.078 h 1.551 q 0.594,0 0.935,-0.286 0.341,-0.286 0.341,-0.792 v -0.099 q 0,-0.506 -0.341,-0.792 -0.33,-0.286 -0.935,-0.286 h -1.551 z m 0,-3.344 h 1.551 q 0.561,0 0.902,-0.275 0.341,-0.286 0.341,-0.77 v -0.11 q 0,-0.484 -0.341,-0.759 -0.33,-0.286 -0.902,-0.286 h -1.551 z m 7.257979,4.521 q -0.616,0 -1.1,-0.275 -0.484,-0.275 -0.759,-0.781 -0.275,-0.506 -0.275,-1.21 v -3.256 h 1.133 v 3.179 q 0,0.704 0.352,1.045 0.352,0.33 0.979,0.33 0.693,0 1.111,-0.462 0.429,-0.473 0.429,-1.353 v -2.739 h 1.133 V 120 h -1.111 v -0.814 h -0.176 q -0.154,0.33 -0.55,0.627 -0.396,0.286 -1.166,0.286 z M 83.060419,120 v -5.423 h 1.111 v 0.814 h 0.176 q 0.154,-0.33 0.55,-0.616 0.396,-0.286 1.177,-0.286 0.616,0 1.089,0.275 0.484,0.275 0.759,0.781 0.275,0.495 0.275,1.199 V 120 h -1.133 v -3.168 q 0,-0.704 -0.352,-1.034 -0.352,-0.341 -0.968,-0.341 -0.704,0 -1.133,0.462 -0.418,0.462 -0.418,1.342 V 120 Z m 8.808995,0.154 q -0.671,0 -1.243,-0.33 -0.572,-0.33 -0.924,-0.946 -0.341,-0.627 -0.341,-1.507 v -0.165 q 0,-0.869 0.341,-1.496 0.341,-0.627 0.913,-0.957 0.572,-0.33 1.254,-0.33 0.528,0 0.88,0.132 0.363,0.132 0.594,0.341 0.231,0.198 0.352,0.418 h 0.176 V 112.3 h 1.133 v 7.7 h -1.111 v -0.77 h -0.176 q -0.209,0.352 -0.638,0.638 -0.418,0.286 -1.21,0.286 z m 0.319,-0.99 q 0.737,0 1.21,-0.473 0.484,-0.473 0.484,-1.353 v -0.099 q 0,-0.869 -0.473,-1.342 -0.473,-0.473 -1.221,-0.473 -0.726,0 -1.21,0.473 -0.473,0.473 -0.473,1.342 v 0.099 q 0,0.88 0.473,1.353 0.484,0.473 1.21,0.473 z m 4.28799,0.836 v -7.7 h 1.133 v 7.7 z m 5.101986,0.154 q -0.825,0 -1.441,-0.341 -0.616004,-0.352 -0.968004,-0.979 -0.341,-0.638 -0.341,-1.474 v -0.132 q 0,-0.847 0.341,-1.474 0.341,-0.638 0.946004,-0.979 0.616,-0.352 1.419,-0.352 0.781,0 1.364,0.352 0.594,0.341 0.924,0.957 0.33,0.616 0.33,1.441 v 0.429 h -4.169004 q 0.022,0.715 0.473004,1.144 0.462,0.418 1.144,0.418 0.638,0 0.957,-0.286 0.33,-0.286 0.506,-0.66 l 0.935,0.484 q -0.154,0.308 -0.451,0.649 -0.286,0.341 -0.759,0.572 -0.473,0.231 -1.21,0.231 z m -1.584004,-3.421 h 3.003004 q -0.044,-0.616 -0.44,-0.957 -0.396,-0.352 -1.034,-0.352 -0.638,0 -1.045,0.352 -0.396,0.341 -0.484004,0.957 z"
       id="path7" />
  </g>
</svg>
